<svg width="164" height="24" viewBox="0 0 164 24" fill="none" xmlns="http://www.w3.org/2000/svg">
<g clip-path="url(#clip0_5_28)">
<path d="M16.8749 19L11.0749 10.225L16.8249 1.40002H12.5999L8.74991 7.40002L4.9499 1.40002H0.574902L6.3249 10.15L0.524902 19H4.7999L8.6499 12.975L12.5249 19H16.8749Z" fill="#303B44"/>
<path d="M24.2606 5.77502C20.8856 5.77502 18.9606 7.62502 18.6106 9.85002H22.0106C22.2106 9.17502 22.8606 8.60002 24.1106 8.60002C25.3356 8.60002 26.2356 9.22502 26.2356 10.425V11.025H23.4106C20.1106 11.025 18.1106 12.55 18.1106 15.2C18.1106 17.8 20.1106 19.3 22.6106 19.3C24.2856 19.3 25.6356 18.65 26.4356 17.6V19H29.8106V10.55C29.8106 7.40002 27.5856 5.77502 24.2606 5.77502ZM23.6106 16.475C22.4856 16.475 21.7606 15.925 21.7606 15.025C21.7606 14.1 22.5606 13.55 23.6856 13.55H26.2356V14.125C26.2356 15.625 25.0106 16.475 23.6106 16.475Z" fill="#303B44"/>
<path d="M39.9251 6.3C38.1251 6.3 36.6501 6.95 35.7001 8.275C35.9501 5.85 36.9251 4.65 39.3751 4.275L44.3001 3.55V0.375L39.0251 1.25C33.9251 2.1 32.3501 5.5 32.3501 11.175C32.3501 16.275 34.8251 19.3 39.2001 19.3C43.1251 19.3 45.5501 16.3 45.5501 12.7C45.5501 8.825 43.3001 6.3 39.9251 6.3ZM39.0251 16.25C37.1251 16.25 36.0751 14.725 36.0751 12.675C36.0751 10.7 37.1751 9.275 39.0501 9.275C40.8751 9.275 41.9001 10.75 41.9001 12.7C41.9001 14.65 40.9001 16.25 39.0251 16.25Z" fill="#303B44"/>
<path d="M55.2855 5.77502C53.3855 5.77502 52.1605 6.60002 51.5105 7.57502V6.07502H48.0105V23.775H51.6605V17.75C52.3105 18.65 53.5355 19.3 55.1855 19.3C58.3605 19.3 60.8855 16.8 60.8855 12.55C60.8855 8.22502 58.3605 5.77502 55.2855 5.77502ZM54.4105 16.15C52.7105 16.15 51.5855 14.775 51.5855 12.6V12.5C51.5855 10.325 52.7105 8.92502 54.4105 8.92502C56.1105 8.92502 57.2105 10.35 57.2105 12.55C57.2105 14.75 56.1105 16.15 54.4105 16.15Z" fill="#303B44"/>
<path d="M82.5357 19L74.0357 9.82502L82.3857 1.40002H79.5107L71.6857 9.25002V1.40002H69.4607V19H71.6857V10.6L79.5857 19H82.5357Z" fill="#303B44"/>
<path d="M89.2661 6.125C86.3911 6.125 84.6411 7.75 84.2411 9.7H86.3161C86.6661 8.775 87.5661 8.025 89.2161 8.025C90.8411 8.025 92.0661 8.9 92.0661 10.65V11.5H88.7161C85.6411 11.5 83.7661 12.975 83.7661 15.4C83.7661 17.8 85.6661 19.275 88.1161 19.275C89.7161 19.275 91.2161 18.675 92.1661 17.5V19H94.1911V10.65C94.1911 7.825 92.2161 6.125 89.2661 6.125ZM88.3911 17.4C86.9911 17.4 85.9411 16.7 85.9411 15.375C85.9411 14.025 87.1161 13.325 88.8411 13.325H92.0661V14.25C92.0661 16.175 90.3911 17.4 88.3911 17.4Z" fill="#303B44"/>
<path d="M104.022 6.125C101.847 6.125 100.522 7.125 99.8973 8.2V6.4H97.8223V23.775H99.9723V17.45C100.572 18.375 101.922 19.275 103.947 19.275C106.847 19.275 109.697 17.15 109.697 12.7C109.697 8.275 106.872 6.125 104.022 6.125ZM103.747 17.325C101.422 17.325 99.8973 15.55 99.8973 12.75V12.65C99.8973 9.85 101.422 8.075 103.747 8.075C105.997 8.075 107.497 9.95 107.497 12.7C107.497 15.45 105.997 17.325 103.747 17.325Z" fill="#303B44"/>
<path d="M117.665 10.475H114.84V6.40002H112.69V19H117.64C120.34 19 122.09 17.15 122.09 14.7C122.09 12.25 120.34 10.475 117.665 10.475ZM117.39 17.1H114.84V12.375H117.39C119.04 12.375 119.94 13.35 119.94 14.7C119.94 16.05 119.04 17.1 117.39 17.1Z" fill="#303B44"/>
<path d="M135.646 13.35V12.25C135.646 8.5 133.496 6.125 130.146 6.125C126.696 6.125 124.221 8.625 124.221 12.7C124.221 16.75 126.671 19.275 130.321 19.275C133.596 19.275 135.171 17.225 135.496 15.75H133.321C133.096 16.4 132.096 17.35 130.346 17.35C128.021 17.35 126.471 15.65 126.471 13.4V13.35H135.646ZM130.096 8.05C132.121 8.05 133.371 9.35 133.471 11.525H126.496C126.671 9.45 127.996 8.05 130.096 8.05Z" fill="#303B44"/>
<path d="M144.843 6.125C142.668 6.125 141.343 7.125 140.718 8.2V6.4H138.643V23.775H140.793V17.45C141.393 18.375 142.743 19.275 144.768 19.275C147.668 19.275 150.518 17.15 150.518 12.7C150.518 8.275 147.693 6.125 144.843 6.125ZM144.568 17.325C142.243 17.325 140.718 15.55 140.718 12.75V12.65C140.718 9.85 142.243 8.075 144.568 8.075C146.818 8.075 148.318 9.95 148.318 12.7C148.318 15.45 146.818 17.325 144.568 17.325Z" fill="#303B44"/>
<path d="M158.236 6.125C155.361 6.125 153.611 7.75 153.211 9.7H155.286C155.636 8.775 156.536 8.025 158.186 8.025C159.811 8.025 161.036 8.9 161.036 10.65V11.5H157.686C154.611 11.5 152.736 12.975 152.736 15.4C152.736 17.8 154.636 19.275 157.086 19.275C158.686 19.275 160.186 18.675 161.136 17.5V19H163.161V10.65C163.161 7.825 161.186 6.125 158.236 6.125ZM157.361 17.4C155.961 17.4 154.911 16.7 154.911 15.375C154.911 14.025 156.086 13.325 157.811 13.325H161.036V14.25C161.036 16.175 159.361 17.4 157.361 17.4Z" fill="#303B44"/>
</g>
<defs>
<clipPath id="clip0_5_28">
<rect width="164" height="24" fill="white"/>
</clipPath>
</defs>
</svg>
