<svg width="103" height="102" viewBox="0 0 103 102" fill="none" xmlns="http://www.w3.org/2000/svg">
<circle cx="52" cy="50" r="50" fill="#475C6E"/>
<path d="M32.1083 18C29.8487 18 28 19.8281 28 22.0625V78.9375C28 81.1719 29.8487 83 32.1083 83H73.1917C75.4512 83 77.3 81.1719 77.3 78.9375V34.25L60.8667 18H32.1083Z" fill="#E2E5E7"/>
<path d="M77.1875 46.1875L65 34H77.1875V46.1875Z" fill="#CAD1D8"/>
<path d="M65.0625 34.25H77.25L61 18V30.1875C61 32.4219 62.8281 34.25 65.0625 34.25Z" fill="#B0B7BD"/>
<path d="M66.5938 74.0312H28V76.0625H66.5938C67.7109 76.0625 68.625 75.1484 68.625 74.0312V72C68.625 73.1172 67.7109 74.0312 66.5938 74.0312Z" fill="#CAD1D8"/>
<path d="M68.75 72.3438C68.75 73.4609 67.8359 74.375 66.7188 74.375H22.0312C20.9141 74.375 20 73.4609 20 72.3438V52.0312C20 50.9141 20.9141 50 22.0312 50H66.7188C67.8359 50 68.75 50.9141 68.75 52.0312V72.3438Z" fill="white"/>
<path d="M25.0564 70.7616L23.3992 52.1728H41.6007L39.9415 70.763L32.4955 72.8272L25.0564 70.7616Z" fill="#E34E26"/>
<path d="M32.5 53.6922V71.2482L38.521 69.5792L39.9396 53.6922H32.5Z" fill="#EF662A"/>
<path d="M26.7898 55.9724L27.4043 62.8668H35.3065L35.0413 65.824L32.497 66.5119L29.9575 65.825L29.7877 63.9262H27.4992L27.8264 67.5865L32.4964 68.8835L37.1723 67.5865L37.7992 60.5872H29.4895L29.2809 58.2525H37.9988H38.0058L38.21 55.9724H26.7898Z" fill="white"/>
<path d="M32.4999 55.9724H26.7898L27.4043 62.8668H32.4999V60.5872H29.4895L29.2809 58.2525H32.4999V55.9724Z" fill="#EBEBEB"/>
<path d="M32.5 66.5109L32.497 66.5119L29.9576 65.825L29.7878 63.9262H27.4993L27.8265 67.5865L32.4965 68.8835L32.5 68.8825V66.5109Z" fill="#EBEBEB"/>
<g clip-path="url(#clip0_1_318)">
<path d="M47.5072 70.8001L46 52.0352L64 52.0729L62.4063 70.8001L55.0679 72.9648L47.5072 70.8001Z" fill="#1B73BA"/>
<path d="M55.0679 71.1525V53.8224L62.4804 53.8475L61.1585 69.3528L55.0679 71.1525Z" fill="#1C88C7"/>
<path d="M60.6397 56.0375H49.2368L49.5457 58.3027H54.9568L49.6322 60.6311L49.941 62.8209H57.7859L57.5017 65.8791L54.8456 66.4078L52.4366 65.7785L52.2512 64.0417H50.0398L50.3363 67.6538L55.0803 69.0004L59.6267 67.528L60.2074 60.4674H55.4014L60.6395 58.2524L60.6397 56.0375Z" fill="white"/>
</g>
<defs>
<clipPath id="clip0_1_318">
<rect width="18" height="21" fill="white" transform="translate(46 52)"/>
</clipPath>
</defs>
</svg>
