<svg width="146" height="48" viewBox="0 0 146 48" fill="none" xmlns="http://www.w3.org/2000/svg">
<path d="M24.3649 0L5.35962 1.9845V36.726L24.3649 48L43.3702 36.726V1.9845L24.5605 0.024L24.3649 0ZM40.8793 35.313L24.3649 45.117L7.85054 35.313V21.078L24.2942 30.8355L24.3183 32.6085L13.0369 25.905L13.0219 27.6315L24.3499 34.4205L24.3815 36.2325L13.0535 29.514L13.0385 31.233L24.3664 38.022L35.8042 31.194V29.4675L35.7891 29.475V23.865L40.8808 20.8335L40.8793 35.313ZM40.8718 18.9915L34.2669 22.875L24.3168 16.968L24.3017 18.687L32.8018 23.7255L32.7312 23.772L32.5431 23.8815L31.3368 24.5925L24.3168 20.4285L24.3017 22.14L29.8401 25.4295L28.5315 26.304L28.4999 26.319L24.3168 23.8575L24.3017 25.5765L27.0439 27.1935L24.2476 28.866L7.88213 19.1625L24.2717 9.342L40.8718 18.9915ZM40.8793 17.265L24.2701 7.5L7.84903 17.25V4.218L24.3634 2.4915L40.8853 4.218V17.2575L40.8793 17.265Z" fill="black"/>
<path d="M55.4116 5.84C56.2383 5.84 56.985 6.02 57.6516 6.38C58.3183 6.72667 58.8383 7.25333 59.2116 7.96C59.5983 8.66667 59.7916 9.52667 59.7916 10.54V17H57.9916V10.8C57.9916 9.70667 57.7183 8.87333 57.1716 8.3C56.625 7.71333 55.8783 7.42 54.9316 7.42C53.9716 7.42 53.205 7.72 52.6316 8.32C52.0716 8.92 51.7916 9.79333 51.7916 10.94V17H49.9716V2.2H51.7916V7.6C52.1516 7.04 52.645 6.60667 53.2716 6.3C53.9116 5.99333 54.625 5.84 55.4116 5.84ZM64.9846 7.54V14C64.9846 14.5333 65.0979 14.9133 65.3246 15.14C65.5513 15.3533 65.9446 15.46 66.5046 15.46H67.8446V17H66.2046C65.1913 17 64.4313 16.7667 63.9246 16.3C63.4179 15.8333 63.1646 15.0667 63.1646 14V7.54H61.7446V6.04H63.1646V3.28H64.9846V6.04H67.8446V7.54H64.9846ZM83.2298 5.84C84.0831 5.84 84.8431 6.02 85.5098 6.38C86.1764 6.72667 86.7031 7.25333 87.0898 7.96C87.4764 8.66667 87.6698 9.52667 87.6698 10.54V17H85.8698V10.8C85.8698 9.70667 85.5964 8.87333 85.0498 8.3C84.5164 7.71333 83.7898 7.42 82.8698 7.42C81.9231 7.42 81.1698 7.72667 80.6098 8.34C80.0498 8.94 79.7698 9.81333 79.7698 10.96V17H77.9698V10.8C77.9698 9.70667 77.6964 8.87333 77.1498 8.3C76.6164 7.71333 75.8898 7.42 74.9698 7.42C74.0231 7.42 73.2698 7.72667 72.7098 8.34C72.1498 8.94 71.8698 9.81333 71.8698 10.96V17H70.0498V6.04H71.8698V7.62C72.2298 7.04667 72.7098 6.60667 73.3098 6.3C73.9231 5.99333 74.5964 5.84 75.3298 5.84C76.2498 5.84 77.0631 6.04667 77.7698 6.46C78.4764 6.87333 79.0031 7.48 79.3498 8.28C79.6564 7.50667 80.1631 6.90667 80.8698 6.48C81.5764 6.05333 82.3631 5.84 83.2298 5.84ZM92.4752 2.2V17H90.6552V2.2H92.4752ZM49.2916 31.48C49.2916 30.36 49.5183 29.38 49.9716 28.54C50.425 27.6867 51.045 27.0267 51.8316 26.56C52.6316 26.0933 53.5183 25.86 54.4916 25.86C55.4516 25.86 56.285 26.0667 56.9916 26.48C57.6983 26.8933 58.225 27.4133 58.5716 28.04V26.04H60.4116V37H58.5716V34.96C58.2116 35.6 57.6716 36.1333 56.9516 36.56C56.245 36.9733 55.4183 37.18 54.4716 37.18C53.4983 37.18 52.6183 36.94 51.8316 36.46C51.045 35.98 50.425 35.3067 49.9716 34.44C49.5183 33.5733 49.2916 32.5867 49.2916 31.48ZM58.5716 31.5C58.5716 30.6733 58.405 29.9533 58.0716 29.34C57.7383 28.7267 57.285 28.26 56.7116 27.94C56.1516 27.6067 55.5316 27.44 54.8516 27.44C54.1716 27.44 53.5516 27.6 52.9916 27.92C52.4316 28.24 51.985 28.7067 51.6516 29.32C51.3183 29.9333 51.1516 30.6533 51.1516 31.48C51.1516 32.32 51.3183 33.0533 51.6516 33.68C51.985 34.2933 52.4316 34.7667 52.9916 35.1C53.5516 35.42 54.1716 35.58 54.8516 35.58C55.5316 35.58 56.1516 35.42 56.7116 35.1C57.285 34.7667 57.7383 34.2933 58.0716 33.68C58.405 33.0533 58.5716 32.3267 58.5716 31.5ZM62.8073 31.5C62.8073 30.3667 63.0339 29.38 63.4873 28.54C63.9406 27.6867 64.5673 27.0267 65.3673 26.56C66.1806 26.0933 67.1073 25.86 68.1473 25.86C69.4939 25.86 70.6006 26.1867 71.4673 26.84C72.3473 27.4933 72.9273 28.4 73.2073 29.56H71.2473C71.0606 28.8933 70.6939 28.3667 70.1473 27.98C69.6139 27.5933 68.9473 27.4 68.1473 27.4C67.1073 27.4 66.2673 27.76 65.6273 28.48C64.9873 29.1867 64.6673 30.1933 64.6673 31.5C64.6673 32.82 64.9873 33.84 65.6273 34.56C66.2673 35.28 67.1073 35.64 68.1473 35.64C68.9473 35.64 69.6139 35.4533 70.1473 35.08C70.6806 34.7067 71.0473 34.1733 71.2473 33.48H73.2073C72.9139 34.6 72.3273 35.5 71.4473 36.18C70.5673 36.8467 69.4673 37.18 68.1473 37.18C67.1073 37.18 66.1806 36.9467 65.3673 36.48C64.5673 36.0133 63.9406 35.3533 63.4873 34.5C63.0339 33.6467 62.8073 32.6467 62.8073 31.5ZM74.9557 31.48C74.9557 30.36 75.1824 29.38 75.6357 28.54C76.089 27.6867 76.709 27.0267 77.4957 26.56C78.2957 26.0933 79.1824 25.86 80.1557 25.86C81.1157 25.86 81.949 26.0667 82.6557 26.48C83.3624 26.8933 83.889 27.4133 84.2357 28.04V26.04H86.0757V37H84.2357V34.96C83.8757 35.6 83.3357 36.1333 82.6157 36.56C81.909 36.9733 81.0824 37.18 80.1357 37.18C79.1624 37.18 78.2824 36.94 77.4957 36.46C76.709 35.98 76.089 35.3067 75.6357 34.44C75.1824 33.5733 74.9557 32.5867 74.9557 31.48ZM84.2357 31.5C84.2357 30.6733 84.069 29.9533 83.7357 29.34C83.4024 28.7267 82.949 28.26 82.3757 27.94C81.8157 27.6067 81.1957 27.44 80.5157 27.44C79.8357 27.44 79.2157 27.6 78.6557 27.92C78.0957 28.24 77.649 28.7067 77.3157 29.32C76.9824 29.9333 76.8157 30.6533 76.8157 31.48C76.8157 32.32 76.9824 33.0533 77.3157 33.68C77.649 34.2933 78.0957 34.7667 78.6557 35.1C79.2157 35.42 79.8357 35.58 80.5157 35.58C81.1957 35.58 81.8157 35.42 82.3757 35.1C82.949 34.7667 83.4024 34.2933 83.7357 33.68C84.069 33.0533 84.2357 32.3267 84.2357 31.5ZM88.4713 31.48C88.4713 30.36 88.698 29.38 89.1513 28.54C89.6047 27.6867 90.2247 27.0267 91.0113 26.56C91.8113 26.0933 92.7047 25.86 93.6913 25.86C94.5447 25.86 95.338 26.06 96.0713 26.46C96.8047 26.8467 97.3647 27.36 97.7513 28V22.2H99.5913V37H97.7513V34.94C97.3913 35.5933 96.858 36.1333 96.1513 36.56C95.4447 36.9733 94.618 37.18 93.6713 37.18C92.698 37.18 91.8113 36.94 91.0113 36.46C90.2247 35.98 89.6047 35.3067 89.1513 34.44C88.698 33.5733 88.4713 32.5867 88.4713 31.48ZM97.7513 31.5C97.7513 30.6733 97.5847 29.9533 97.2513 29.34C96.918 28.7267 96.4647 28.26 95.8913 27.94C95.3313 27.6067 94.7113 27.44 94.0313 27.44C93.3513 27.44 92.7313 27.6 92.1713 27.92C91.6113 28.24 91.1647 28.7067 90.8313 29.32C90.498 29.9333 90.3313 30.6533 90.3313 31.48C90.3313 32.32 90.498 33.0533 90.8313 33.68C91.1647 34.2933 91.6113 34.7667 92.1713 35.1C92.7313 35.42 93.3513 35.58 94.0313 35.58C94.7113 35.58 95.3313 35.42 95.8913 35.1C96.4647 34.7667 96.918 34.2933 97.2513 33.68C97.5847 33.0533 97.7513 32.3267 97.7513 31.5ZM112.667 31.1C112.667 31.4467 112.647 31.8133 112.607 32.2H103.847C103.914 33.28 104.28 34.1267 104.947 34.74C105.627 35.34 106.447 35.64 107.407 35.64C108.194 35.64 108.847 35.46 109.367 35.1C109.9 34.7267 110.274 34.2333 110.487 33.62H112.447C112.154 34.6733 111.567 35.5333 110.687 36.2C109.807 36.8533 108.714 37.18 107.407 37.18C106.367 37.18 105.434 36.9467 104.607 36.48C103.794 36.0133 103.154 35.3533 102.687 34.5C102.22 33.6333 101.987 32.6333 101.987 31.5C101.987 30.3667 102.214 29.3733 102.667 28.52C103.12 27.6667 103.754 27.0133 104.567 26.56C105.394 26.0933 106.34 25.86 107.407 25.86C108.447 25.86 109.367 26.0867 110.167 26.54C110.967 26.9933 111.58 27.62 112.007 28.42C112.447 29.2067 112.667 30.1 112.667 31.1ZM110.787 30.72C110.787 30.0267 110.634 29.4333 110.327 28.94C110.02 28.4333 109.6 28.0533 109.067 27.8C108.547 27.5333 107.967 27.4 107.327 27.4C106.407 27.4 105.62 27.6933 104.967 28.28C104.327 28.8667 103.96 29.68 103.867 30.72H110.787ZM128.249 25.84C129.103 25.84 129.863 26.02 130.529 26.38C131.196 26.7267 131.723 27.2533 132.109 27.96C132.496 28.6667 132.689 29.5267 132.689 30.54V37H130.889V30.8C130.889 29.7067 130.616 28.8733 130.069 28.3C129.536 27.7133 128.809 27.42 127.889 27.42C126.943 27.42 126.189 27.7267 125.629 28.34C125.069 28.94 124.789 29.8133 124.789 30.96V37H122.989V30.8C122.989 29.7067 122.716 28.8733 122.169 28.3C121.636 27.7133 120.909 27.42 119.989 27.42C119.043 27.42 118.289 27.7267 117.729 28.34C117.169 28.94 116.889 29.8133 116.889 30.96V37H115.069V26.04H116.889V27.62C117.249 27.0467 117.729 26.6067 118.329 26.3C118.943 25.9933 119.616 25.84 120.349 25.84C121.269 25.84 122.083 26.0467 122.789 26.46C123.496 26.8733 124.023 27.48 124.369 28.28C124.676 27.5067 125.183 26.9067 125.889 26.48C126.596 26.0533 127.383 25.84 128.249 25.84ZM145.115 26.04L138.515 42.16H136.635L138.795 36.88L134.375 26.04H136.395L139.835 34.92L143.235 26.04H145.115Z" fill="black"/>
</svg>
