<svg width="103" height="102" viewBox="0 0 103 102" fill="none" xmlns="http://www.w3.org/2000/svg">
<circle cx="52" cy="50" r="50" fill="#475C6E"/>
<path d="M32.1083 18C29.8487 18 28 19.8281 28 22.0625V78.9375C28 81.1719 29.8487 83 32.1083 83H73.1917C75.4512 83 77.3 81.1719 77.3 78.9375V34.25L60.8667 18H32.1083Z" fill="#E2E5E7"/>
<path d="M77.1875 46.1875L65 34H77.1875V46.1875Z" fill="#CAD1D8"/>
<path d="M65.0625 34.25H77.25L61 18V30.1875C61 32.4219 62.8281 34.25 65.0625 34.25Z" fill="#B0B7BD"/>
<path d="M66.5938 74.0312H28V76.0625H66.5938C67.7109 76.0625 68.625 75.1484 68.625 74.0312V72C68.625 73.1172 67.7109 74.0312 66.5938 74.0312Z" fill="#CAD1D8"/>
<path d="M68.75 72.3438C68.75 73.4609 67.8359 74.375 66.7188 74.375H22.0312C20.9141 74.375 20 73.4609 20 72.3438V52.0312C20 50.9141 20.9141 50 22.0312 50H66.7188C67.8359 50 68.75 50.9141 68.75 52.0312V72.3438Z" fill="#F7DF1E"/>
<path d="M38.29 55.3994H41.0269V64.0088C41.0269 65.1344 40.9279 66.0003 40.73 66.6064C40.464 67.3981 39.9816 68.0352 39.2827 68.5176C38.5838 68.9938 37.6623 69.2319 36.5181 69.2319C35.1759 69.2319 34.1431 68.8577 33.4194 68.1094C32.6958 67.3548 32.3309 66.2508 32.3247 64.7974L34.9131 64.5005C34.944 65.2798 35.0584 65.8302 35.2563 66.1519C35.5532 66.6405 36.0047 66.8848 36.6108 66.8848C37.2231 66.8848 37.6561 66.7116 37.9097 66.3652C38.1632 66.0127 38.29 65.286 38.29 64.1851V55.3994ZM43.2627 64.5747L45.9346 64.3149C46.0954 65.2118 46.4201 65.8704 46.9087 66.291C47.4035 66.7116 48.0684 66.9219 48.9033 66.9219C49.7878 66.9219 50.4526 66.7363 50.8979 66.3652C51.3494 65.988 51.5752 65.5488 51.5752 65.0479C51.5752 64.7262 51.4793 64.4541 51.2876 64.2314C51.1021 64.0026 50.7743 63.8047 50.3042 63.6377C49.9826 63.5264 49.2497 63.3285 48.1055 63.0439C46.6335 62.679 45.6006 62.2306 45.0068 61.6987C44.1719 60.9504 43.7544 60.0381 43.7544 58.9619C43.7544 58.2692 43.9492 57.6229 44.3389 57.0229C44.7347 56.4168 45.3006 55.9561 46.0366 55.6406C46.7788 55.3252 47.6725 55.1675 48.7178 55.1675C50.4248 55.1675 51.7082 55.5417 52.5679 56.29C53.4338 57.0384 53.8883 58.0373 53.9316 59.2866L51.1855 59.4072C51.068 58.7083 50.8145 58.2074 50.4248 57.9043C50.0413 57.5951 49.4631 57.4404 48.6899 57.4404C47.8921 57.4404 47.2674 57.6043 46.8159 57.9321C46.5252 58.1424 46.3799 58.4238 46.3799 58.7764C46.3799 59.098 46.516 59.3732 46.7881 59.6021C47.1344 59.8927 47.9756 60.1958 49.3115 60.5112C50.6475 60.8267 51.634 61.1545 52.271 61.4946C52.9142 61.8286 53.4152 62.2894 53.7739 62.877C54.1388 63.4583 54.3213 64.1789 54.3213 65.0386C54.3213 65.8179 54.1048 66.5477 53.6719 67.228C53.2389 67.9084 52.6266 68.4155 51.835 68.7495C51.0433 69.0773 50.0568 69.2412 48.8755 69.2412C47.1561 69.2412 45.8356 68.8454 44.9141 68.0537C43.9925 67.2559 43.4421 66.0962 43.2627 64.5747Z" fill="white"/>
</svg>
