<svg width="215" height="54" viewBox="0 0 215 54" fill="none" xmlns="http://www.w3.org/2000/svg">
<path fill-rule="evenodd" clip-rule="evenodd" d="M40.4038 13.4943C43.1874 12.8726 45.4409 12.3992 47.5655 12.0598C48.2582 10.8081 48.903 9.73614 49.1572 9.30163C50.4005 7.17717 49.6086 7.78599 50.1773 7.22525C50.5533 6.83966 51.4701 6.90423 51.2105 7.77225H51.2108C50.3138 8.94098 49.5483 10.2517 48.702 11.6388C48.6467 11.7295 48.5913 11.821 48.536 11.913C49.1016 11.8324 49.6625 11.7612 50.2261 11.6996C51.5816 9.5668 53.315 7.25413 54.3533 7.7731C55.1365 8.28408 54.0625 9.88066 52.6229 11.4954C54.544 11.3772 56.6149 11.3549 59.112 11.4186C59.4856 11.4056 59.9375 12.1801 59.6754 12.2956C56.672 12.2188 54.1982 12.214 51.8408 12.34C50.6453 13.5877 49.3852 14.7313 48.7831 15.2532C48.6005 15.5498 48.754 15.2979 48.592 15.5768C48.9964 15.1538 49.6114 14.5311 50.2675 14.6092C51.2585 14.7268 50.0929 16.8412 50.5578 16.7528C50.7012 16.8012 51.1648 16.4185 51.5215 16.0798C51.9379 15.1096 52.6095 13.3374 53.701 13.6567C54.1524 13.7886 54.0147 14.5655 53.6734 15.0853C53.1796 15.8385 52.4497 16.3261 51.9615 16.4789C51.7851 16.7688 52.0826 16.9362 52.4752 16.7993C52.7482 16.7042 53.1876 16.5204 53.6989 16.2985C54.1914 16.0852 54.5422 16.1871 54.6547 16.4158C54.4066 16.5317 54.1548 16.6615 53.9014 16.8051C53.2553 17.1711 52.6263 17.7195 52.1963 17.9268C51.5725 18.2275 51.1377 17.8715 51.2401 17.0653C51.0042 17.3015 50.7215 17.5728 50.4799 17.8343C50.1733 18.1667 49.3706 18.3034 49.5194 17.2969C49.6038 16.73 49.9085 15.5533 49.6461 15.5537C49.0868 15.4349 48.5312 16.3076 48.0333 17.8492C47.7779 18.5666 47.2376 18.2977 47.1668 17.8018C47.1022 17.3427 47.5441 16.5654 47.746 16.1975C47.4346 16.4346 45.7206 19.1964 45.3055 17.7832C45.0725 16.9879 46.1029 14.7755 47.1715 12.7825C45.1333 13.0613 42.9797 13.4643 40.4526 14.0287C40.2449 14.0647 40.0823 13.6511 40.403 13.4943L40.4038 13.4943ZM20 23.9174H24.6352V35.1771L30.1973 46.437H35.296L29.7338 35.1771L35.296 23.9174H30.1973L24.6352 35.1771V46.437H20V23.9174ZM47.5792 23.9174H52.2143V41.37H60.0942V46.437H47.5792V23.9173V23.9174ZM71.2186 23.3544C76.5935 23.3544 80.9524 28.6486 80.9524 35.1771C80.9524 41.7056 76.5935 46.9999 71.2186 46.9999C65.8436 46.9999 61.4847 41.7056 61.4847 35.1771C61.4847 28.6486 65.8436 23.3544 71.2186 23.3544ZM71.2186 28.9843C74.034 28.9843 76.3173 31.7575 76.3173 35.1771C76.3173 38.5968 74.034 41.37 71.2186 41.37C68.4031 41.37 66.1199 38.5968 66.1199 35.1771C66.1199 31.7575 68.4031 28.9843 71.2186 28.9843ZM38.7724 23.9174H43.4076V46.437H38.7724V23.9174ZM51.0182 11.6193C51.2938 11.5936 51.571 11.5701 51.8506 11.5487C52.2225 11.097 52.5924 10.5976 53.0007 9.98434C53.0171 9.96091 53.8001 8.80644 53.301 9.10568C53.1539 9.19384 52.9614 9.35406 52.7418 9.56429C51.9628 10.3101 51.4703 10.9362 51.0182 11.6193V11.6193ZM51.1162 12.383C50.9138 12.3963 50.7121 12.4107 50.5105 12.4261C50.2485 12.8573 49.9692 13.3291 49.6261 13.8752H49.627C50.1976 13.3202 50.6747 12.8546 51.1162 12.383ZM49.7342 12.4907C49.1898 12.5399 48.6449 12.5973 48.0943 12.6636C47.5565 13.5973 47.0426 14.5686 46.6377 15.4819C46.2883 16.2696 46.2832 16.6096 46.9587 16.1064C47.4786 15.7195 48.294 14.8662 48.4243 14.697C48.6681 14.3036 49.1432 13.4604 49.7342 12.4907V12.4907ZM52.3901 15.539C53.0489 15.2364 53.2126 14.7253 53.1296 14.6167C53.0477 14.5081 52.717 14.8021 52.3894 15.5391L52.3901 15.539V15.539Z" fill="black"/>
</svg>
