<svg width="103" height="102" viewBox="0 0 103 102" fill="none" xmlns="http://www.w3.org/2000/svg">
<circle cx="52" cy="50" r="50" fill="#475C6E"/>
<path d="M32.1083 18C29.8487 18 28 19.8281 28 22.0625V78.9375C28 81.1719 29.8487 83 32.1083 83H73.1917C75.4512 83 77.3 81.1719 77.3 78.9375V34.25L60.8667 18H32.1083Z" fill="#E2E5E7"/>
<path d="M77.1875 46.1875L65 34H77.1875V46.1875Z" fill="#CAD1D8"/>
<path d="M65.0625 34.25H77.25L61 18V30.1875C61 32.4219 62.8281 34.25 65.0625 34.25Z" fill="#B0B7BD"/>
<path d="M66.5938 74.0312H28V76.0625H66.5938C67.7109 76.0625 68.625 75.1484 68.625 74.0312V72C68.625 73.1172 67.7109 74.0312 66.5938 74.0312Z" fill="#CAD1D8"/>
<path d="M68.75 72.3438C68.75 73.4609 67.8359 74.375 66.7188 74.375H22.0312C20.9141 74.375 20 73.4609 20 72.3438V52.0312C20 50.9141 20.9141 50 22.0312 50H66.7188C67.8359 50 68.75 50.9141 68.75 52.0312V72.3438Z" fill="#4479A1"/>
<path d="M28.3828 67L25.2344 58.7734H25.1836C25.2428 59.4251 25.2725 60.1995 25.2725 61.0967V67H24.2759V57.7197H25.9009L28.8398 65.375H28.8906L31.855 57.7197H33.4673V67H32.3882V61.0205C32.3882 60.335 32.4178 59.5902 32.4771 58.7861H32.4263L29.2524 67H28.3828ZM34.7559 60.043H35.8857L37.4092 64.0103C37.7435 64.9159 37.9508 65.5697 38.0312 65.9717H38.082C38.137 65.7559 38.2513 65.3877 38.4248 64.8672C38.6025 64.3424 39.1781 62.7344 40.1514 60.043H41.2812L38.2915 67.9648C37.9953 68.7477 37.6483 69.3021 37.2505 69.6279C36.8569 69.958 36.3724 70.123 35.7969 70.123C35.4753 70.123 35.1579 70.0871 34.8447 70.0151V69.1709C35.0775 69.2217 35.3377 69.2471 35.6255 69.2471C36.3491 69.2471 36.8654 68.8408 37.1743 68.0283L37.5615 67.0381L34.7559 60.043Z" fill="white"/>
<path d="M47.8066 64.5308C47.8066 65.3475 47.5104 65.9844 46.918 66.4414C46.3255 66.8984 45.5215 67.127 44.5059 67.127C43.4056 67.127 42.5592 66.9852 41.9668 66.7017V65.6606C42.3477 65.8215 42.7624 65.9484 43.2109 66.0415C43.6595 66.1346 44.1038 66.1812 44.5439 66.1812C45.2633 66.1812 45.805 66.0457 46.1689 65.7749C46.5329 65.4998 46.7148 65.119 46.7148 64.6323C46.7148 64.3107 46.6493 64.0483 46.5181 63.8452C46.3911 63.6379 46.1753 63.4474 45.8706 63.2739C45.5701 63.1004 45.111 62.9036 44.4932 62.6836C43.6299 62.3747 43.012 62.0086 42.6396 61.5854C42.2715 61.1623 42.0874 60.61 42.0874 59.9287C42.0874 59.2135 42.3561 58.6444 42.8936 58.2212C43.431 57.798 44.1419 57.5864 45.0264 57.5864C45.9489 57.5864 46.7974 57.7557 47.5718 58.0942L47.2354 59.0337C46.4694 58.7121 45.7246 58.5513 45.001 58.5513C44.4297 58.5513 43.9832 58.674 43.6616 58.9194C43.34 59.1649 43.1792 59.5055 43.1792 59.9414C43.1792 60.263 43.2384 60.5275 43.3569 60.7349C43.4754 60.938 43.6743 61.1263 43.9536 61.2998C44.2371 61.4691 44.6688 61.6574 45.2485 61.8647C46.2218 62.2118 46.8905 62.5841 47.2544 62.9819C47.6226 63.3797 47.8066 63.896 47.8066 64.5308ZM57.7598 62.3472C57.7598 63.5363 57.5207 64.5244 57.0425 65.3115C56.5643 66.0986 55.8893 66.6318 55.0176 66.9111L57.2266 69.209H55.6587L53.8496 67.1143L53.5005 67.127C52.1336 67.127 51.0778 66.7101 50.333 65.8765C49.5924 65.0386 49.2222 63.8579 49.2222 62.3345C49.2222 60.8237 49.5946 59.6536 50.3394 58.8242C51.0841 57.9906 52.1421 57.5737 53.5132 57.5737C54.8462 57.5737 55.8872 57.9969 56.6362 58.8433C57.3853 59.6896 57.7598 60.8576 57.7598 62.3472ZM50.3647 62.3472C50.3647 63.604 50.6313 64.5583 51.1646 65.21C51.702 65.8574 52.4806 66.1812 53.5005 66.1812C54.5288 66.1812 55.3053 65.8574 55.8301 65.21C56.3548 64.5625 56.6172 63.6082 56.6172 62.3472C56.6172 61.0988 56.3548 60.153 55.8301 59.5098C55.3096 58.8623 54.5373 58.5386 53.5132 58.5386C52.4849 58.5386 51.702 58.8644 51.1646 59.5161C50.6313 60.1636 50.3647 61.1073 50.3647 62.3472ZM59.8354 67V57.7197H60.9146V66.0225H65.0088V67H59.8354Z" fill="#E6892E"/>
</svg>
