<svg width="103" height="102" viewBox="0 0 103 102" fill="none" xmlns="http://www.w3.org/2000/svg">
<circle cx="52" cy="50" r="50" fill="#475C6E"/>
<path d="M32.1083 18C29.8487 18 28 19.8281 28 22.0625V78.9375C28 81.1719 29.8487 83 32.1083 83H73.1917C75.4512 83 77.3 81.1719 77.3 78.9375V34.25L60.8667 18H32.1083Z" fill="#E2E5E7"/>
<path d="M77.1875 46.1875L65 34H77.1875V46.1875Z" fill="#CAD1D8"/>
<path d="M65.0625 34.25H77.25L61 18V30.1875C61 32.4219 62.8281 34.25 65.0625 34.25Z" fill="#B0B7BD"/>
<path d="M66.5938 74.0312H28V76.0625H66.5938C67.7109 76.0625 68.625 75.1484 68.625 74.0312V72C68.625 73.1172 67.7109 74.0312 66.5938 74.0312Z" fill="#CAD1D8"/>
<path d="M68.75 72.3438C68.75 73.4609 67.8359 74.375 66.7188 74.375H22.0312C20.9141 74.375 20 73.4609 20 72.3438V52.0312C20 50.9141 20.9141 50 22.0312 50H66.7188C67.8359 50 68.75 50.9141 68.75 52.0312V72.3438Z" fill="#777BB3"/>
<path d="M28 57.1233C28 56.587 28.4225 56 29.105 56H32.8567C34.9692 56 36.8705 57.4137 36.8705 60.1255C36.8705 62.693 34.9692 64.1209 32.8567 64.1209H30.143V66.2659C30.143 66.983 29.69 67.3872 29.105 67.3872C28.5687 67.3872 28 66.983 28 66.2659V57.1233ZM30.143 58.0475V62.0917H32.8547C33.9434 62.0917 34.8047 61.133 34.8047 60.1255C34.8047 58.988 33.9434 58.0475 32.8547 58.0475H30.143Z" fill="white"/>
<path d="M38.6091 66.3797V57.1558C38.6091 56.5708 39.0316 56.1483 39.7629 56.1483C40.3296 56.1483 40.7521 56.5708 40.7521 57.1558V60.6962H46.0455V57.1558C46.0455 56.5708 46.5655 56.1483 47.1505 56.1483C47.7173 56.1483 48.158 56.5708 48.158 57.1558V66.3797C48.158 66.9484 47.7173 67.3872 47.1505 67.3872C46.5655 67.3872 46.0455 66.9484 46.0455 66.3797V62.825H40.7521V66.3797C40.7521 66.9484 40.3296 67.3872 39.7629 67.3872C39.0316 67.3872 38.6091 66.9484 38.6091 66.3797Z" fill="white"/>
<path d="M50.4392 57.1233C50.4392 56.587 50.8617 56 51.5442 56H55.2959C57.4084 56 59.3097 57.4137 59.3097 60.1255C59.3097 62.693 57.4084 64.1209 55.2959 64.1209H52.5842V66.2659C52.5842 66.983 52.1292 67.3872 51.5442 67.3872C51.008 67.3872 50.4392 66.983 50.4392 66.2659V57.1233ZM52.5842 58.0475V62.0917H55.2959C56.3847 62.0917 57.2459 61.133 57.2459 60.1255C57.2459 58.988 56.3847 58.0475 55.2959 58.0475H52.5842Z" fill="white"/>
</svg>
