<svg width="215" height="54" viewBox="0 0 215 54" fill="none" xmlns="http://www.w3.org/2000/svg">
<g clip-path="url(#clip0_137_5)">
<path fill-rule="evenodd" clip-rule="evenodd" d="M195.301 17.9812H198.224C199.872 17.9812 201.97 16.6472 201.97 14.9937V11.9875C201.97 11.9123 201.97 11.8372 201.951 11.762V9H198.992H193.484C191.836 9 190 10.3528 190 11.9875V14.1106V18H195.301V17.9812Z" fill="#00DC00"/>
<path d="M192.042 10.7849H192.81L195.095 14.7118V10.7849H195.901V16.2713H195.133L192.847 12.3444V16.2713H192.042V10.7849ZM198.092 16.3652H196.294V15.5197H198.092C198.28 15.5197 198.448 15.5009 198.561 15.4634C198.692 15.4258 198.804 15.3694 198.879 15.313C198.973 15.2379 199.029 15.1627 199.067 15.0688C199.104 14.9936 199.123 14.8809 199.123 14.787C199.123 14.5239 199.029 14.336 198.823 14.2045C198.617 14.073 198.298 13.9602 197.886 13.8475C197.643 13.7911 197.437 13.716 197.249 13.622C197.062 13.5469 196.912 13.4341 196.781 13.3026C196.669 13.1711 196.575 13.0208 196.5 12.8329C196.444 12.6638 196.406 12.4383 196.406 12.194C196.406 11.9874 196.444 11.7995 196.519 11.6116C196.594 11.4237 196.687 11.2734 196.837 11.1419C196.987 10.9915 197.156 10.8976 197.362 10.8036C197.568 10.7285 197.811 10.6909 198.092 10.6909H199.591V11.5176C199.591 11.5364 198.111 11.5176 198.092 11.5176C197.774 11.5176 197.549 11.5928 197.418 11.7243C197.268 11.8558 197.193 12.0062 197.193 12.194C197.193 12.4383 197.287 12.6262 197.474 12.7577C197.643 12.8892 197.924 12.9832 198.28 13.0771C198.542 13.1523 198.786 13.2275 198.992 13.3214C199.198 13.3966 199.366 13.5093 199.516 13.6408C199.647 13.7723 199.741 13.9414 199.816 14.1293C199.891 14.2984 199.909 14.5239 199.909 14.787C199.909 15.0124 199.872 15.2191 199.797 15.407C199.722 15.5949 199.61 15.764 199.46 15.9143C199.31 16.0458 199.123 16.1586 198.898 16.2337C198.673 16.3277 198.392 16.3652 198.092 16.3652Z" fill="white"/>
<path d="M49.2155 9.63741L36.6405 4.41827L36.6811 12.8006C37.2206 12.8662 37.705 13.1129 38.0703 13.4789C38.2458 13.6547 38.3937 13.8581 38.5076 14.0825L49.2155 9.63741ZM36.3407 3L43.5316 5.9848L50.7225 8.9696L53.7013 16.1751L56.68 23.3819L53.7013 30.5874L50.7225 37.7929L43.5316 40.7777L36.3407 43.7625L29.1484 40.7777L21.9575 37.7929L18.9788 30.5874L16 23.3819L18.9788 16.1751L21.9575 8.9696L29.1484 5.9848L36.3407 3ZM30.6071 27.2287C30.7629 27.2287 30.9148 27.2497 31.0588 27.2877L35.2199 17.2208C35.0366 17.1158 34.8677 16.9859 34.7197 16.8377C34.4382 16.5556 34.2274 16.204 34.1161 15.8104L25.9196 16.5674C25.8921 17.1001 25.6656 17.5789 25.3134 17.9319C25.2479 17.9975 25.1772 18.0591 25.1026 18.1169L30.175 27.2825C30.3138 27.2471 30.4591 27.2287 30.6071 27.2287ZM31.6008 27.5357C31.6938 27.5974 31.7789 27.6695 31.8575 27.7483C32.1141 28.0054 32.2922 28.3413 32.3524 28.7165L39.5656 28.6247C39.6572 28.0343 39.9374 27.5055 40.3394 27.1014C40.5253 26.9164 40.7361 26.7577 40.9666 26.6317L37.1538 17.4084C36.9155 17.4884 36.6602 17.533 36.3944 17.533C36.1783 17.533 35.9701 17.5042 35.7711 17.4491L31.6008 27.5357ZM32.3472 29.3135C32.283 29.6769 32.1076 30.001 31.8575 30.2515C31.7711 30.3381 31.6768 30.4155 31.5747 30.4825L36.4428 42.259L40.909 31.4533C40.7008 31.3326 40.5096 31.1844 40.3394 31.0138C39.8759 30.5494 39.5774 29.9209 39.5368 29.2229L32.3472 29.3135ZM31.0274 30.7199C30.8925 30.7527 30.7524 30.7711 30.6071 30.7711C30.2326 30.7711 29.8843 30.653 29.5989 30.4536L23.1647 37.0018L35.7894 42.2406L31.0274 30.7199ZM29.1733 30.0338C28.9638 29.7425 28.8407 29.3856 28.8407 28.9999C28.8407 28.8648 28.8552 28.7336 28.884 28.6076L17.4979 23.8818L22.7457 36.5767L29.1733 30.0338ZM29.1118 28.0553C29.1825 27.9437 29.265 27.8401 29.3579 27.7483C29.4404 27.6656 29.5308 27.5908 29.6277 27.5252L24.5815 18.4068C24.3523 18.4934 24.1035 18.5419 23.8443 18.5419C23.3795 18.5419 22.9513 18.3884 22.6043 18.13L17.5215 23.2442L29.1118 28.0553ZM49.3556 15.2646C49.5153 15.3315 49.6593 15.4299 49.7798 15.5506C50.0207 15.792 50.17 16.1266 50.17 16.4952C50.17 16.7576 50.0953 17.0017 49.9657 17.2076L54.8836 22.1552L50.1556 10.7185L49.3556 15.2646ZM49.5428 17.6301C49.3372 17.7587 49.095 17.8322 48.8358 17.8322C48.7074 17.8322 48.583 17.8151 48.4652 17.781L43.5787 26.6094C43.8249 26.7406 44.0501 26.9059 44.2439 27.1014C44.4089 27.2667 44.5529 27.4531 44.672 27.6551L55.1743 23.2953L49.5428 17.6301ZM47.9441 17.491C47.9271 17.474 47.9087 17.4582 47.893 17.4412C47.6901 17.2391 47.5526 16.9715 47.5133 16.6737L38.6608 15.855C38.5456 16.2302 38.34 16.5661 38.0703 16.8377C37.9551 16.9531 37.8281 17.0568 37.6906 17.146L41.5165 26.4021C41.7627 26.33 42.0232 26.2919 42.2916 26.2919C42.5444 26.2919 42.7879 26.326 43.0196 26.389L47.9441 17.491ZM47.5683 16.078C47.6338 15.8773 47.7464 15.6975 47.893 15.5506C48.1182 15.3236 48.4259 15.178 48.7677 15.1609L49.6567 10.1019L38.7093 14.6453C38.7446 14.8106 38.7643 14.9825 38.7643 15.1583C38.7643 15.1937 38.7643 15.2291 38.7617 15.2646L47.5683 16.078ZM34.0258 15.2187C34.0258 15.199 34.0258 15.178 34.0258 15.1583C34.0258 14.9969 34.0415 14.8395 34.0729 14.6873L23.0312 10.1045L23.7828 14.379C23.8024 14.3777 23.8233 14.3777 23.8443 14.3777C24.4178 14.3777 24.9376 14.6112 25.3134 14.9877C25.5805 15.2541 25.7743 15.5939 25.8646 15.9731L34.0258 15.2187ZM34.2641 14.1192C34.3793 13.8817 34.5338 13.6652 34.7197 13.4789C35.0798 13.1181 35.5551 12.8741 36.0854 12.8046L36.0448 4.41565L23.4646 9.63741L34.2641 14.1192ZM22.1827 17.7088C21.9222 17.3611 21.7677 16.9282 21.7677 16.4598C21.7677 15.8851 21.9994 15.3643 22.3752 14.9877C22.603 14.7608 22.8819 14.585 23.1935 14.4826L22.5297 10.708L17.8226 22.0935L22.1827 17.7088ZM44.9182 28.1996C45.0059 28.4699 45.0531 28.7585 45.0531 29.0576C45.0531 29.732 44.8121 30.3499 44.4128 30.8301L49.9369 36.5714L55.1547 23.9513L44.9182 28.1996ZM43.9833 31.246C43.5159 31.6082 42.9293 31.8246 42.2916 31.8246C42.001 31.8246 41.7195 31.7787 41.455 31.6947L37.1381 42.1383L49.5205 36.9992L43.9833 31.246Z" fill="#025CB5"/>
<path d="M77.3441 20.3212C77.3441 21.258 76.4577 22.0255 75.3736 22.0255H67.4939V16.9113H75.3736C76.4577 16.9113 77.3441 17.6775 77.3441 18.6156V20.3212ZM79.3134 18.6156C79.2544 16.7237 77.4816 15.207 75.3736 15.207H65.5247V27.1397H67.4939V23.7298H75.3736C77.5811 23.7298 79.3134 22.1278 79.3134 20.3212V18.6156ZM80.8898 27.1397H82.8591L92.7093 20.1651V27.1397H94.6798V17.8638H92.7093L82.8591 24.6679V17.8638H80.8898V27.1397ZM108.469 19.5694V17.8638H96.6491V27.1397H98.6197V19.5694H108.469ZM112.136 27.1397H114.107L123.957 17.8205V27.0623H125.926V15.5193H123.957L114.107 24.6679V15.5193H112.136V27.1397ZM129.866 17.8284H127.897V27.0623H129.866L129.879 23.3008H139.729L139.716 27.1397H141.687V17.8573H139.716L139.729 21.5965H129.879L129.866 17.8284ZM156.46 19.5616V17.8573H142.671V19.5616H148.582V27.1397H150.551V19.5616H156.46ZM159.415 19.5616H171.236V17.8573H157.446V27.1397H171.236V25.4341H159.415L159.43 23.3008H169.278V21.5965H159.43L159.415 19.5616ZM176.751 17.8573C174.545 17.8573 172.811 19.1142 172.811 20.9549V27.1397H174.782V20.9549C174.782 20.0168 175.668 19.5616 176.751 19.5616H184.631V27.1397H186.601V17.8573H176.751Z" fill="#025CB5"/>
<path fill-rule="evenodd" clip-rule="evenodd" d="M57.1645 47.4057C57.3962 47.4057 57.6057 47.4976 57.7589 47.6471L66.4163 40.6909C66.3561 40.5558 66.3234 40.4062 66.3234 40.2488C66.3234 39.8105 66.58 39.4327 66.9518 39.2569L66.5603 36.6827C66.0052 36.6303 65.5718 36.1619 65.5718 35.5911C65.5718 34.9863 66.0615 34.4956 66.6651 34.4956C67.0906 34.4956 67.4599 34.7397 67.6406 35.0965L77.1032 34.3552C77.2341 33.9603 77.606 33.6743 78.0446 33.6743C78.5382 33.6743 78.9467 34.0351 79.0227 34.5074L87.1616 36.9806C87.396 36.5988 87.8176 36.3455 88.2968 36.3455C88.8153 36.3455 89.2657 36.6421 89.4857 37.075L97.1178 35.2133C97.1532 34.7921 97.5054 34.4615 97.9349 34.4615C98.2727 34.4615 98.5634 34.6675 98.6891 34.9614L107.536 35.2382C107.636 35.1005 107.798 35.0099 107.981 35.0099C108.246 35.0099 108.467 35.1975 108.517 35.4481L112.952 37.2705C113.094 37.1223 113.295 37.0304 113.517 37.0304C113.744 37.0304 113.947 37.1249 114.091 37.2784L123.131 34.9155C123.192 34.5415 123.516 34.2555 123.907 34.2555C124.241 34.2555 124.526 34.4655 124.64 34.7607L137.743 36.1566C137.87 35.9808 138.077 35.8654 138.311 35.8654C138.534 35.8654 138.733 35.9703 138.861 36.133L152.205 35.7722C152.278 35.6633 152.404 35.5911 152.545 35.5911C152.631 35.5911 152.711 35.6187 152.778 35.6646L168.451 36.3967C168.547 36.2419 168.718 36.1396 168.914 36.1396C169.086 36.1396 169.238 36.2183 169.339 36.3416L181.509 35.1044C181.573 34.8722 181.785 34.7016 182.037 34.7016C182.339 34.7016 182.584 34.947 182.584 35.2487C182.584 35.5518 182.339 35.7971 182.037 35.7971C181.804 35.7971 181.605 35.6515 181.526 35.4455L169.46 36.6722V36.688C169.46 36.9897 169.216 37.2351 168.914 37.2351C168.628 37.2351 168.393 37.0147 168.37 36.7352L152.955 36.0149C152.948 36.2353 152.766 36.4138 152.545 36.4138C152.371 36.4138 152.223 36.3049 152.163 36.1527L145.831 38.0197C145.841 38.059 145.846 38.0997 145.846 38.143C145.846 38.4172 145.625 38.6389 145.351 38.6389C145.078 38.6389 144.855 38.4172 144.855 38.143C144.855 38.122 144.857 38.101 144.859 38.08L138.934 36.8874C138.819 37.1144 138.583 37.2692 138.311 37.2692C138.03 37.2692 137.787 37.1039 137.676 36.8651L126.998 38.9433C127.01 38.9945 127.017 39.047 127.017 39.1021C127.017 39.4891 126.702 39.804 126.316 39.804C125.929 39.804 125.616 39.4891 125.616 39.1021C125.616 39.0771 125.617 39.0522 125.62 39.0286L116.943 38.3791L109.705 41.4755C109.718 41.5332 109.724 41.5922 109.724 41.6526C109.724 42.0882 109.372 42.4398 108.939 42.4398C108.504 42.4398 108.152 42.0882 108.152 41.6526C108.152 41.5621 108.167 41.4755 108.196 41.3941L102.312 39.3632C102.24 39.56 102.051 39.7003 101.83 39.7003C101.666 39.7003 101.521 39.6242 101.427 39.5048L94.4193 43.3634C94.4821 43.5117 94.5175 43.6744 94.5175 43.8436C94.5175 44.5246 93.9662 45.0769 93.2867 45.0769C92.6071 45.0769 92.0559 44.5246 92.0559 43.8436C92.0559 43.7741 92.0625 43.7046 92.0742 43.6376L83.5766 40.3485C83.447 40.6332 83.1615 40.8313 82.829 40.8313C82.6456 40.8313 82.4754 40.7696 82.3393 40.6673L75.875 47.0856C75.9732 47.2496 76.0282 47.4411 76.0282 47.6458C76.0282 48.2506 75.5385 48.7413 74.9349 48.7413C74.3444 48.7413 73.8626 48.2716 73.8429 47.6852L58.0143 48.3504C57.9697 48.782 57.6057 49.1179 57.1645 49.1179C56.6931 49.1179 56.3108 48.7348 56.3108 48.2611C56.3108 47.7888 56.6931 47.4057 57.1645 47.4057ZM57.9527 47.9305C57.9632 47.9568 57.9737 47.983 57.9815 48.0105L73.8835 47.3414C73.9372 47.1551 74.0393 46.9898 74.1742 46.8586L68.214 40.9992C68.015 41.2118 67.7309 41.3443 67.4167 41.3443C67.0932 41.3443 66.8013 41.2039 66.6009 40.9795L57.9527 47.9305ZM68.4078 40.7119L74.4583 46.6592C74.6023 46.5883 74.7647 46.549 74.9349 46.549C74.9441 46.549 74.9532 46.5503 74.9624 46.5503L76.5559 40.0966L68.51 40.2094C68.51 40.2225 68.51 40.2356 68.51 40.2488C68.51 40.4141 68.4733 40.5702 68.4078 40.7119ZM66.9034 36.6617L67.2818 39.1611C67.3263 39.1559 67.3708 39.1532 67.4167 39.1532C67.6275 39.1532 67.8226 39.2123 67.9902 39.3159L77.077 34.8814C77.0639 34.8236 77.0574 34.7633 77.0547 34.7029L67.7466 35.4311C67.7545 35.4836 67.7584 35.5374 67.7584 35.5911C67.7584 36.1146 67.3931 36.5528 66.9034 36.6617ZM87.0215 37.2941L79.0175 34.8617C78.9258 35.3169 78.5251 35.6607 78.0446 35.6607C78.0302 35.6607 78.0158 35.6594 78.0027 35.6594L76.9932 39.7489L82.0787 39.678C82.2057 39.3894 82.4938 39.1873 82.829 39.1873C83.0476 39.1873 83.2453 39.2726 83.392 39.4117L86.9743 37.8399C86.9678 37.7874 86.9639 37.7336 86.9639 37.6799C86.9639 37.546 86.9848 37.4161 87.0215 37.2941ZM75.6564 46.8219L82.1141 40.4101C82.0486 40.2947 82.0106 40.1622 82.0093 40.0205L76.9081 40.0913L75.2989 46.612C75.4325 46.6592 75.5529 46.7313 75.6564 46.8219ZM68.4432 39.8683L76.6397 39.7541L77.6688 35.5859C77.4777 35.5072 77.3166 35.3707 77.2079 35.1989L68.2677 39.56C68.3411 39.6518 68.4013 39.7554 68.4432 39.8683ZM87.0581 38.1745L83.5884 39.6977C83.6277 39.7935 83.6499 39.8984 83.6499 40.0087V40.0113L92.1777 43.311C92.3754 42.8977 92.7983 42.6117 93.2867 42.6117C93.4425 42.6117 93.5918 42.6405 93.7293 42.6943L95.9761 38.6402L89.5996 37.9646C89.47 38.5655 88.9357 39.0155 88.2968 39.0155C87.7351 39.0155 87.2545 38.6678 87.0581 38.1745ZM114.303 37.8386L116.886 38.0328L123.178 35.3406C123.169 35.3156 123.159 35.2894 123.152 35.2631L114.269 37.5841C114.291 37.6576 114.304 37.7363 114.304 37.8176C114.304 37.8242 114.303 37.832 114.303 37.8386ZM126.832 38.6271L137.612 36.5292C137.612 36.5148 137.613 36.5017 137.615 36.4872L124.69 35.1096C124.674 35.2907 124.598 35.4547 124.482 35.5807L126.087 38.4382C126.159 38.4133 126.236 38.4001 126.316 38.4001C126.521 38.4001 126.705 38.488 126.832 38.6271ZM97.1597 35.5531L89.5996 37.3991C89.6153 37.4712 89.6258 37.5473 89.6284 37.6247L96.1555 38.3149L97.4622 35.9559C97.3234 35.8575 97.216 35.7171 97.1597 35.5531ZM97.7778 36.0897L96.5234 38.3542L101.424 38.8738C101.518 38.7518 101.665 38.673 101.83 38.673C101.896 38.673 101.958 38.6862 102.016 38.7085L107.328 35.5741L98.7545 35.3038C98.7427 35.7486 98.3801 36.1055 97.9349 36.1055C97.8812 36.1055 97.8288 36.1002 97.7778 36.0897ZM96.344 38.6783L94.0265 42.8596C94.1077 42.9213 94.181 42.9921 94.2438 43.0709L101.271 39.2005L96.344 38.6783ZM107.523 35.8549L102.283 38.9472C102.292 38.9643 102.3 38.9814 102.307 38.9997L108.382 41.0963C108.525 40.9533 108.721 40.8654 108.939 40.8654C109.071 40.8654 109.195 40.8982 109.305 40.9559L112.791 38.1154C112.753 38.0236 112.732 37.9226 112.732 37.8176C112.732 37.7297 112.746 37.6444 112.772 37.5657L108.472 35.7984C108.383 35.9795 108.197 36.1055 107.981 36.1055C107.789 36.1055 107.62 36.0057 107.523 35.8549ZM112.986 38.3962L109.617 41.1422L116.204 38.324L114.218 38.1758C114.088 38.4303 113.822 38.6048 113.517 38.6048C113.312 38.6048 113.126 38.5261 112.986 38.3962ZM125.8 38.6258L124.199 35.7748C124.109 35.8116 124.01 35.8312 123.907 35.8312C123.703 35.8312 123.517 35.7538 123.378 35.6266L117.625 38.0879L125.745 38.6953C125.762 38.6704 125.781 38.6481 125.8 38.6258ZM150.974 36.1474L139.005 36.4702C139.009 36.4977 139.012 36.5266 139.012 36.5555L145.028 37.7664C145.115 37.6917 145.227 37.6457 145.351 37.6457C145.45 37.6457 145.543 37.6759 145.62 37.7258L150.974 36.1474Z" fill="#025CB5"/>
</g>
<defs>
<clipPath id="clip0_137_5">
<rect width="186" height="47" fill="white" transform="translate(16 3)"/>
</clipPath>
</defs>
</svg>
