<svg width="50" height="50" viewBox="0 0 50 50" fill="none" xmlns="http://www.w3.org/2000/svg">
<path d="M25 50C38.8071 50 50 38.8071 50 25C50 11.1929 38.8071 0 25 0C11.1929 0 0 11.1929 0 25C0 38.8071 11.1929 50 25 50Z" fill="#4D76A1"/>
<path fill-rule="evenodd" clip-rule="evenodd" d="M24.0556 35.9647H26.0178C26.0178 35.9647 26.6105 35.8997 26.9131 35.5734C27.1916 35.274 27.1827 34.7116 27.1827 34.7116C27.1827 34.7116 27.1444 32.0787 28.3663 31.6909C29.5709 31.309 31.1178 34.2356 32.7573 35.3609C33.9971 36.2125 34.9392 36.0258 34.9392 36.0258L39.323 35.9647C39.323 35.9647 41.6164 35.8234 40.529 34.0203C40.4398 33.8728 39.8957 32.6865 37.2695 30.2488C34.5207 27.6975 34.8888 28.1102 38.2 23.6969C40.2166 21.0092 41.0228 19.3683 40.771 18.6655C40.5308 17.9962 39.0476 18.1731 39.0476 18.1731L34.1116 18.2038C34.1116 18.2038 33.7458 18.1539 33.4744 18.3161C33.2092 18.4752 33.0385 18.846 33.0385 18.846C33.0385 18.846 32.2573 20.9259 31.2154 22.6946C29.0174 26.4269 28.1386 26.6239 27.7794 26.3922C26.9438 25.8521 27.1524 24.2223 27.1524 23.0645C27.1524 19.4476 27.701 17.9396 26.0842 17.5492C25.5476 17.4195 25.1528 17.3339 23.7806 17.3201C22.0194 17.3018 20.5287 17.3255 19.6846 17.739C19.1231 18.014 18.69 18.6268 18.9538 18.662C19.28 18.7056 20.0189 18.8612 20.4106 19.3946C20.9164 20.0827 20.8986 21.6282 20.8986 21.6282C20.8986 21.6282 21.1892 25.8859 20.2199 26.4149C19.5545 26.7777 18.6418 26.037 16.6823 22.651C15.6783 20.9165 14.9202 18.9993 14.9202 18.9993C14.9202 18.9993 14.774 18.641 14.5133 18.4494C14.1969 18.2172 13.7548 18.1432 13.7548 18.1432L9.06439 18.174C9.06439 18.174 8.36027 18.1936 8.10179 18.4997C7.87184 18.772 8.08352 19.3353 8.08352 19.3353C8.08352 19.3353 11.7557 27.9265 15.9136 32.256C19.7261 36.2254 24.0556 35.9647 24.0556 35.9647Z" fill="white"/>
</svg>
